 <svg id="logo"
          preserveAspectRatio="xMidYMid meet"
          viewBox="0 0 690 108"
          fill="none"
          xmlns="http://www.w3.org/2000/svg"
        >
          <mask
            id="path-1-outside-1"
            maskUnits="userSpaceOnUse"
            x="0.351562"
            y="-0.351562"
            width="690"
            height="108"
            fill="black"
          >
            <rect
              fill="white"
              x="0.351562"
              y="-0.351562"
              width="690"
              height="108"
            />
            <path d="M82.9922 36.8906L71.7422 12.8438L35.8828 19.9453L37.2188 45.6797H47.8359L59.5078 28.7344V71.4844L47.2734 52.6406L37.6406 53.7656L39.5391 88.9219L60.2109 97.7109L6.5625 103.406L21.8203 89.7656L25.5469 22.3359L6.35156 5.39062L82.9922 2.64844V36.8906Z" />
            <path d="M85.5234 66.7031C85.5234 61.4531 86.3438 56.6016 87.9844 52.1484C89.6719 47.6484 91.9922 43.7578 94.9453 40.4766C97.9453 37.1953 101.484 34.6406 105.562 32.8125C109.688 30.9375 114.188 30 119.062 30C123.797 30 128.133 30.8906 132.07 32.6719C136.008 34.4062 139.43 36.8672 142.336 40.0547C145.242 43.2422 147.562 47.0625 149.297 51.5156C151.031 55.9688 152.062 60.8906 152.391 66.2812C152.719 72.0469 152.109 77.2734 150.562 81.9609C149.062 86.6016 146.836 90.5625 143.883 93.8438C140.93 97.0781 137.391 99.5859 133.266 101.367C129.188 103.148 124.758 104.039 119.977 104.039C115.383 104.039 111 103.219 106.828 101.578C102.703 99.8906 99.0469 97.4531 95.8594 94.2656C92.7188 91.0781 90.2109 87.1875 88.3359 82.5938C86.4609 77.9531 85.5234 72.6562 85.5234 66.7031ZM102.82 67.8984C102.82 72.0234 103.406 75.75 104.578 79.0781C105.75 82.4062 107.32 85.2422 109.289 87.5859C111.258 89.8828 113.531 91.6641 116.109 92.9297C118.688 94.1953 121.406 94.8281 124.266 94.8281C127.125 94.8281 129.797 94.2188 132.281 93C134.766 91.7344 136.922 89.9766 138.75 87.7266C140.578 85.4297 142.008 82.6875 143.039 79.5C144.07 76.3125 144.586 72.7734 144.586 68.8828C144.586 65.0391 144.07 61.4297 143.039 58.0547C142.008 54.6328 140.555 51.6562 138.68 49.125C136.852 46.5938 134.672 44.6016 132.141 43.1484C129.609 41.6953 126.844 40.9688 123.844 40.9688C121.172 40.9688 118.57 41.5781 116.039 42.7969C113.555 44.0156 111.328 45.7969 109.359 48.1406C107.391 50.4375 105.797 53.25 104.578 56.5781C103.406 59.9062 102.82 63.6797 102.82 67.8984Z" />
            <path d="M160.477 66.7031C160.477 61.4531 161.297 56.6016 162.938 52.1484C164.625 47.6484 166.945 43.7578 169.898 40.4766C172.898 37.1953 176.438 34.6406 180.516 32.8125C184.641 30.9375 189.141 30 194.016 30C198.75 30 203.086 30.8906 207.023 32.6719C210.961 34.4062 214.383 36.8672 217.289 40.0547C220.195 43.2422 222.516 47.0625 224.25 51.5156C225.984 55.9688 227.016 60.8906 227.344 66.2812C227.672 72.0469 227.062 77.2734 225.516 81.9609C224.016 86.6016 221.789 90.5625 218.836 93.8438C215.883 97.0781 212.344 99.5859 208.219 101.367C204.141 103.148 199.711 104.039 194.93 104.039C190.336 104.039 185.953 103.219 181.781 101.578C177.656 99.8906 174 97.4531 170.812 94.2656C167.672 91.0781 165.164 87.1875 163.289 82.5938C161.414 77.9531 160.477 72.6562 160.477 66.7031ZM177.773 67.8984C177.773 72.0234 178.359 75.75 179.531 79.0781C180.703 82.4062 182.273 85.2422 184.242 87.5859C186.211 89.8828 188.484 91.6641 191.062 92.9297C193.641 94.1953 196.359 94.8281 199.219 94.8281C202.078 94.8281 204.75 94.2188 207.234 93C209.719 91.7344 211.875 89.9766 213.703 87.7266C215.531 85.4297 216.961 82.6875 217.992 79.5C219.023 76.3125 219.539 72.7734 219.539 68.8828C219.539 65.0391 219.023 61.4297 217.992 58.0547C216.961 54.6328 215.508 51.6562 213.633 49.125C211.805 46.5938 209.625 44.6016 207.094 43.1484C204.562 41.6953 201.797 40.9688 198.797 40.9688C196.125 40.9688 193.523 41.5781 190.992 42.7969C188.508 44.0156 186.281 45.7969 184.312 48.1406C182.344 50.4375 180.75 53.25 179.531 56.5781C178.359 59.9062 177.773 63.6797 177.773 67.8984Z" />
            <path d="M294.07 93.2109L309.609 98.9766L284.156 103.898L284.438 90.1875C283.312 92.1094 282.023 93.9609 280.57 95.7422C279.117 97.4766 277.477 99.0234 275.648 100.383C273.867 101.742 271.875 102.82 269.672 103.617C267.469 104.461 265.078 104.883 262.5 104.883C258.844 104.789 255.375 103.969 252.094 102.422C248.859 100.875 246 98.6719 243.516 95.8125C241.078 92.9062 239.133 89.3672 237.68 85.1953C236.273 80.9766 235.57 76.1719 235.57 70.7812C235.57 64.2188 236.344 58.4766 237.891 53.5547C239.438 48.6328 241.547 44.5312 244.219 41.25C246.891 37.9688 250.008 35.5078 253.57 33.8672C257.18 32.2266 261.023 31.4062 265.102 31.4062C269.227 31.4062 273.047 32.2969 276.562 34.0781C280.125 35.8125 283.031 38.1562 285.281 41.1094L285.562 24.5156L268.406 18.0469L303.141 11.8594L294.07 93.2109ZM264.68 95.9531C264.82 95.9531 265.289 95.9062 266.086 95.8125C266.883 95.7188 267.867 95.4844 269.039 95.1094C270.211 94.6875 271.5 94.0781 272.906 93.2812C274.359 92.4844 275.789 91.3828 277.195 89.9766C278.648 88.5234 280.031 86.7188 281.344 84.5625C282.656 82.4062 283.781 79.7812 284.719 76.6875L285.141 53.7656C284.438 52.0781 283.547 50.4609 282.469 48.9141C281.438 47.3672 280.266 46.0078 278.953 44.8359C277.688 43.6172 276.258 42.6562 274.664 41.9531C273.117 41.2031 271.477 40.8281 269.742 40.8281C266.508 40.8281 263.742 41.625 261.445 43.2188C259.195 44.8125 257.32 47.0156 255.82 49.8281C254.367 52.6406 253.289 55.9688 252.586 59.8125C251.93 63.6562 251.602 67.8281 251.602 72.3281C251.602 75.6562 251.883 78.7734 252.445 81.6797C253.008 84.5391 253.828 87.0234 254.906 89.1328C255.984 91.2422 257.344 92.9062 258.984 94.125C260.625 95.3438 262.523 95.9531 264.68 95.9531Z" />
            <path d="M310.523 102.703L321.562 94.0547L319.172 45.5391L306.164 37.0312L336.398 31.8984L330.984 88.2891L346.102 97.7109L310.523 102.703ZM337.172 14.8828C337.172 16.2891 336.891 17.625 336.328 18.8906C335.766 20.1094 334.992 21.2109 334.008 22.1953C333.023 23.1328 331.898 23.8828 330.633 24.4453C329.367 24.9609 328.031 25.2188 326.625 25.2188C325.125 25.2188 323.719 24.9609 322.406 24.4453C321.141 23.8828 320.039 23.1328 319.102 22.1953C318.164 21.2109 317.414 20.1094 316.852 18.8906C316.289 17.625 316.008 16.2891 316.008 14.8828C316.008 13.4297 316.289 12.0938 316.852 10.875C317.414 9.60938 318.164 8.50781 319.102 7.57031C320.039 6.63281 321.141 5.90625 322.406 5.39062C323.719 4.82812 325.125 4.54688 326.625 4.54688C328.031 4.54688 329.367 4.82812 330.633 5.39062C331.898 5.90625 333.023 6.63281 334.008 7.57031C334.992 8.50781 335.766 9.60938 336.328 10.875C336.891 12.0938 337.172 13.4297 337.172 14.8828Z" />
            <path d="M412.617 58.3359C412.617 60.9609 412.5 63.7266 412.266 66.6328C412.031 69.5391 411.68 72.4453 411.211 75.3516C410.742 78.2578 410.156 81.0938 409.453 83.8594C408.797 86.625 408.023 89.1562 407.133 91.4531L420.984 95.9531L384.352 103.125L396.797 93.7734C397.781 90.1641 398.438 86.6953 398.766 83.3672C399.141 80.0391 399.328 76.8984 399.328 73.9453C399.328 72.1641 399.258 70.1484 399.117 67.8984C399.023 65.6016 398.766 63.2812 398.344 60.9375C397.969 58.5938 397.406 56.2969 396.656 54.0469C395.953 51.7969 395.016 49.8047 393.844 48.0703C392.672 46.2891 391.219 44.8828 389.484 43.8516C387.797 42.7734 385.758 42.2344 383.367 42.2344C380.602 42.2344 377.789 43.1484 374.93 44.9766C372.07 46.8047 369.422 49.5 366.984 53.0625V91.9453L378.586 100.242L343.781 102.703L352.992 92.5078L357.914 41.3906L342.938 34.0078L366.984 31.6172V42.2344C368.344 40.3594 369.844 38.6016 371.484 36.9609C373.125 35.3203 374.859 33.9141 376.688 32.7422C378.516 31.5234 380.414 30.5859 382.383 29.9297C384.398 29.2266 386.461 28.875 388.57 28.875C392.648 28.875 396.188 29.625 399.188 31.125C402.188 32.625 404.672 34.7109 406.641 37.3828C408.656 40.0078 410.156 43.125 411.141 46.7344C412.125 50.2969 412.617 54.1641 412.617 58.3359Z" />
            <path d="M485.812 58.1953C485.812 60.6797 485.672 63.3516 485.391 66.2109C485.109 69.0703 484.688 71.9766 484.125 74.9297C483.609 77.8828 482.977 80.7891 482.227 83.6484C481.523 86.4609 480.75 89.0625 479.906 91.4531L494.883 102L468.375 100.875L469.992 92.2266C467.18 95.7422 463.922 98.4375 460.219 100.312C456.562 102.141 452.32 103.242 447.492 103.617C443.555 103.898 440.109 103.617 437.156 102.773C434.25 101.977 431.812 100.734 429.844 99.0469C427.922 97.3125 426.492 95.2031 425.555 92.7188C424.617 90.1875 424.148 87.375 424.148 84.2812C424.148 81.4219 424.852 78.6562 426.258 75.9844C427.664 73.2656 429.68 70.875 432.305 68.8125C434.977 66.75 438.234 65.1094 442.078 63.8906C445.922 62.625 450.281 61.9922 455.156 61.9922C457.406 61.9922 459.984 62.2031 462.891 62.625C465.844 63.0469 468.633 63.9375 471.258 65.2969C471.023 62.4375 470.578 59.5312 469.922 56.5781C469.312 53.5781 468.398 50.8594 467.18 48.4219C465.961 45.9844 464.367 44.0156 462.398 42.5156C460.477 40.9688 458.062 40.1953 455.156 40.1953C452.672 40.1953 450.258 40.7109 447.914 41.7422C445.57 42.7734 443.367 44.25 441.305 46.1719C439.289 48.0938 437.461 50.4375 435.82 53.2031C434.18 55.9688 432.797 59.0859 431.672 62.5547L425.766 28.1016L434.695 41.8125C436.898 39.0938 439.125 36.9375 441.375 35.3438C443.625 33.7031 445.852 32.4609 448.055 31.6172C450.305 30.7266 452.461 30.1406 454.523 29.8594C456.633 29.5781 458.648 29.4375 460.57 29.4375C464.18 29.625 467.508 30.375 470.555 31.6875C473.648 32.9531 476.32 34.8047 478.57 37.2422C480.82 39.6328 482.578 42.5859 483.844 46.1016C485.156 49.6172 485.812 53.6484 485.812 58.1953ZM471.258 80.6953C471.352 79.3828 471.422 78.1172 471.469 76.8984C471.516 75.6797 471.539 74.4844 471.539 73.3125V72.4688C469.852 71.8125 468.141 71.3203 466.406 70.9922C464.719 70.6172 463.148 70.3594 461.695 70.2188C460.242 70.0312 459 69.9375 457.969 69.9375C456.984 69.8906 456.328 69.8672 456 69.8672C453.328 69.9609 451.008 70.4531 449.039 71.3438C447.07 72.2344 445.43 73.3594 444.117 74.7188C442.852 76.0312 441.891 77.5078 441.234 79.1484C440.625 80.7891 440.32 82.4062 440.32 84C440.32 87.6094 441.188 90.3516 442.922 92.2266C444.703 94.0547 447.281 94.9688 450.656 94.9688C452.906 94.9688 455.039 94.5703 457.055 93.7734C459.07 92.9766 460.945 91.9219 462.68 90.6094C464.461 89.25 466.055 87.7266 467.461 86.0391C468.914 84.3047 470.18 82.5234 471.258 80.6953Z" />
            <path d="M502.758 71.2031C502.758 66.7969 503.203 62.4141 504.094 58.0547C505.031 53.6484 506.039 49.6172 507.117 45.9609L494.953 46.7344L529.266 9.25781C526.547 17.8359 524.344 25.5703 522.656 32.4609L550.008 34.7812L546.422 43.2188L519.914 45.1172C519.258 48.5391 518.742 51.5859 518.367 54.2578C518.039 56.8828 517.758 59.1094 517.523 60.9375C517.289 63.0938 517.125 64.9688 517.031 66.5625C517.031 71.25 517.312 75.4688 517.875 79.2188C518.438 82.9688 519.305 86.1797 520.477 88.8516C521.695 91.4766 523.219 93.5156 525.047 94.9688C526.922 96.375 529.148 97.0781 531.727 97.0781C534.117 97.0781 536.109 96.6094 537.703 95.6719C539.344 94.6875 540.656 93.4453 541.641 91.9453C542.625 90.3984 543.328 88.6875 543.75 86.8125C544.172 84.8906 544.383 82.9922 544.383 81.1172C544.383 79.3828 544.242 77.6953 543.961 76.0547C545.977 77.0859 547.5 78.75 548.531 81.0469C549.609 83.2969 550.148 85.7578 550.148 88.4297C550.148 91.1953 549.68 93.6328 548.742 95.7422C547.852 97.8516 546.609 99.6328 545.016 101.086C543.422 102.492 541.547 103.57 539.391 104.32C537.234 105.07 534.914 105.445 532.43 105.445C530.93 105.445 529.148 105.281 527.086 104.953C525.07 104.625 522.961 104.016 520.758 103.125C518.555 102.281 516.375 101.062 514.219 99.4688C512.062 97.875 510.141 95.8125 508.453 93.2812C506.766 90.75 505.383 87.6797 504.305 84.0703C503.273 80.4141 502.758 76.125 502.758 71.2031Z" />
            <path d="M554.648 66.7031C554.648 61.4531 555.469 56.6016 557.109 52.1484C558.797 47.6484 561.117 43.7578 564.07 40.4766C567.07 37.1953 570.609 34.6406 574.688 32.8125C578.812 30.9375 583.312 30 588.188 30C592.922 30 597.258 30.8906 601.195 32.6719C605.133 34.4062 608.555 36.8672 611.461 40.0547C614.367 43.2422 616.688 47.0625 618.422 51.5156C620.156 55.9688 621.188 60.8906 621.516 66.2812C621.844 72.0469 621.234 77.2734 619.688 81.9609C618.188 86.6016 615.961 90.5625 613.008 93.8438C610.055 97.0781 606.516 99.5859 602.391 101.367C598.312 103.148 593.883 104.039 589.102 104.039C584.508 104.039 580.125 103.219 575.953 101.578C571.828 99.8906 568.172 97.4531 564.984 94.2656C561.844 91.0781 559.336 87.1875 557.461 82.5938C555.586 77.9531 554.648 72.6562 554.648 66.7031ZM571.945 67.8984C571.945 72.0234 572.531 75.75 573.703 79.0781C574.875 82.4062 576.445 85.2422 578.414 87.5859C580.383 89.8828 582.656 91.6641 585.234 92.9297C587.812 94.1953 590.531 94.8281 593.391 94.8281C596.25 94.8281 598.922 94.2188 601.406 93C603.891 91.7344 606.047 89.9766 607.875 87.7266C609.703 85.4297 611.133 82.6875 612.164 79.5C613.195 76.3125 613.711 72.7734 613.711 68.8828C613.711 65.0391 613.195 61.4297 612.164 58.0547C611.133 54.6328 609.68 51.6562 607.805 49.125C605.977 46.5938 603.797 44.6016 601.266 43.1484C598.734 41.6953 595.969 40.9688 592.969 40.9688C590.297 40.9688 587.695 41.5781 585.164 42.7969C582.68 44.0156 580.453 45.7969 578.484 48.1406C576.516 50.4375 574.922 53.25 573.703 56.5781C572.531 59.9062 571.945 63.6797 571.945 67.8984Z" />
            <path d="M678.047 54.0469C677.625 52.3125 677.016 50.8359 676.219 49.6172C675.469 48.3984 674.602 47.3906 673.617 46.5938C672.68 45.75 671.672 45.1172 670.594 44.6953C669.516 44.2266 668.438 43.875 667.359 43.6406C664.828 43.125 662.133 43.1484 659.273 43.7109C658.289 44.0391 657.234 44.5547 656.109 45.2578C655.125 45.9141 654 46.8047 652.734 47.9297C651.469 49.0078 650.109 50.4609 648.656 52.2891L649.922 93.0703L662.578 99.3984L625.312 102.703L634.945 92.9297L638.883 43.9922L623.906 37.1719L648.094 32.6016L648.375 41.3906C650.016 39.4219 651.703 37.8047 653.438 36.5391C655.172 35.2734 656.742 34.2422 658.148 33.4453C659.789 32.5547 661.383 31.875 662.93 31.4062C665.742 30.75 668.602 30.4922 671.508 30.6328C672.727 30.6797 673.992 30.8203 675.305 31.0547C676.664 31.2891 678.023 31.6641 679.383 32.1797C680.789 32.6484 682.148 33.3047 683.461 34.1484C684.773 34.9453 686.039 35.9531 687.258 37.1719L678.047 54.0469Z" />
          </mask>
          <path
            d="M82.9922 36.8906L71.7422 12.8438L35.8828 19.9453L37.2188 45.6797H47.8359L59.5078 28.7344V71.4844L47.2734 52.6406L37.6406 53.7656L39.5391 88.9219L60.2109 97.7109L6.5625 103.406L21.8203 89.7656L25.5469 22.3359L6.35156 5.39062L82.9922 2.64844V36.8906Z"
            fill="#FFFAFA"
          />
          <path
            d="M85.5234 66.7031C85.5234 61.4531 86.3438 56.6016 87.9844 52.1484C89.6719 47.6484 91.9922 43.7578 94.9453 40.4766C97.9453 37.1953 101.484 34.6406 105.562 32.8125C109.688 30.9375 114.188 30 119.062 30C123.797 30 128.133 30.8906 132.07 32.6719C136.008 34.4062 139.43 36.8672 142.336 40.0547C145.242 43.2422 147.562 47.0625 149.297 51.5156C151.031 55.9688 152.062 60.8906 152.391 66.2812C152.719 72.0469 152.109 77.2734 150.562 81.9609C149.062 86.6016 146.836 90.5625 143.883 93.8438C140.93 97.0781 137.391 99.5859 133.266 101.367C129.188 103.148 124.758 104.039 119.977 104.039C115.383 104.039 111 103.219 106.828 101.578C102.703 99.8906 99.0469 97.4531 95.8594 94.2656C92.7188 91.0781 90.2109 87.1875 88.3359 82.5938C86.4609 77.9531 85.5234 72.6562 85.5234 66.7031ZM102.82 67.8984C102.82 72.0234 103.406 75.75 104.578 79.0781C105.75 82.4062 107.32 85.2422 109.289 87.5859C111.258 89.8828 113.531 91.6641 116.109 92.9297C118.688 94.1953 121.406 94.8281 124.266 94.8281C127.125 94.8281 129.797 94.2188 132.281 93C134.766 91.7344 136.922 89.9766 138.75 87.7266C140.578 85.4297 142.008 82.6875 143.039 79.5C144.07 76.3125 144.586 72.7734 144.586 68.8828C144.586 65.0391 144.07 61.4297 143.039 58.0547C142.008 54.6328 140.555 51.6562 138.68 49.125C136.852 46.5938 134.672 44.6016 132.141 43.1484C129.609 41.6953 126.844 40.9688 123.844 40.9688C121.172 40.9688 118.57 41.5781 116.039 42.7969C113.555 44.0156 111.328 45.7969 109.359 48.1406C107.391 50.4375 105.797 53.25 104.578 56.5781C103.406 59.9062 102.82 63.6797 102.82 67.8984Z"
            fill="#FFFAFA"
          />
          <path
            d="M160.477 66.7031C160.477 61.4531 161.297 56.6016 162.938 52.1484C164.625 47.6484 166.945 43.7578 169.898 40.4766C172.898 37.1953 176.438 34.6406 180.516 32.8125C184.641 30.9375 189.141 30 194.016 30C198.75 30 203.086 30.8906 207.023 32.6719C210.961 34.4062 214.383 36.8672 217.289 40.0547C220.195 43.2422 222.516 47.0625 224.25 51.5156C225.984 55.9688 227.016 60.8906 227.344 66.2812C227.672 72.0469 227.062 77.2734 225.516 81.9609C224.016 86.6016 221.789 90.5625 218.836 93.8438C215.883 97.0781 212.344 99.5859 208.219 101.367C204.141 103.148 199.711 104.039 194.93 104.039C190.336 104.039 185.953 103.219 181.781 101.578C177.656 99.8906 174 97.4531 170.812 94.2656C167.672 91.0781 165.164 87.1875 163.289 82.5938C161.414 77.9531 160.477 72.6562 160.477 66.7031ZM177.773 67.8984C177.773 72.0234 178.359 75.75 179.531 79.0781C180.703 82.4062 182.273 85.2422 184.242 87.5859C186.211 89.8828 188.484 91.6641 191.062 92.9297C193.641 94.1953 196.359 94.8281 199.219 94.8281C202.078 94.8281 204.75 94.2188 207.234 93C209.719 91.7344 211.875 89.9766 213.703 87.7266C215.531 85.4297 216.961 82.6875 217.992 79.5C219.023 76.3125 219.539 72.7734 219.539 68.8828C219.539 65.0391 219.023 61.4297 217.992 58.0547C216.961 54.6328 215.508 51.6562 213.633 49.125C211.805 46.5938 209.625 44.6016 207.094 43.1484C204.562 41.6953 201.797 40.9688 198.797 40.9688C196.125 40.9688 193.523 41.5781 190.992 42.7969C188.508 44.0156 186.281 45.7969 184.312 48.1406C182.344 50.4375 180.75 53.25 179.531 56.5781C178.359 59.9062 177.773 63.6797 177.773 67.8984Z"
            fill="#FFFAFA"
          />
          <path
            d="M294.07 93.2109L309.609 98.9766L284.156 103.898L284.438 90.1875C283.312 92.1094 282.023 93.9609 280.57 95.7422C279.117 97.4766 277.477 99.0234 275.648 100.383C273.867 101.742 271.875 102.82 269.672 103.617C267.469 104.461 265.078 104.883 262.5 104.883C258.844 104.789 255.375 103.969 252.094 102.422C248.859 100.875 246 98.6719 243.516 95.8125C241.078 92.9062 239.133 89.3672 237.68 85.1953C236.273 80.9766 235.57 76.1719 235.57 70.7812C235.57 64.2188 236.344 58.4766 237.891 53.5547C239.438 48.6328 241.547 44.5312 244.219 41.25C246.891 37.9688 250.008 35.5078 253.57 33.8672C257.18 32.2266 261.023 31.4062 265.102 31.4062C269.227 31.4062 273.047 32.2969 276.562 34.0781C280.125 35.8125 283.031 38.1562 285.281 41.1094L285.562 24.5156L268.406 18.0469L303.141 11.8594L294.07 93.2109ZM264.68 95.9531C264.82 95.9531 265.289 95.9062 266.086 95.8125C266.883 95.7188 267.867 95.4844 269.039 95.1094C270.211 94.6875 271.5 94.0781 272.906 93.2812C274.359 92.4844 275.789 91.3828 277.195 89.9766C278.648 88.5234 280.031 86.7188 281.344 84.5625C282.656 82.4062 283.781 79.7812 284.719 76.6875L285.141 53.7656C284.438 52.0781 283.547 50.4609 282.469 48.9141C281.438 47.3672 280.266 46.0078 278.953 44.8359C277.688 43.6172 276.258 42.6562 274.664 41.9531C273.117 41.2031 271.477 40.8281 269.742 40.8281C266.508 40.8281 263.742 41.625 261.445 43.2188C259.195 44.8125 257.32 47.0156 255.82 49.8281C254.367 52.6406 253.289 55.9688 252.586 59.8125C251.93 63.6562 251.602 67.8281 251.602 72.3281C251.602 75.6562 251.883 78.7734 252.445 81.6797C253.008 84.5391 253.828 87.0234 254.906 89.1328C255.984 91.2422 257.344 92.9062 258.984 94.125C260.625 95.3438 262.523 95.9531 264.68 95.9531Z"
            fill="#FFFAFA"
          />
          <path
            d="M310.523 102.703L321.562 94.0547L319.172 45.5391L306.164 37.0312L336.398 31.8984L330.984 88.2891L346.102 97.7109L310.523 102.703ZM337.172 14.8828C337.172 16.2891 336.891 17.625 336.328 18.8906C335.766 20.1094 334.992 21.2109 334.008 22.1953C333.023 23.1328 331.898 23.8828 330.633 24.4453C329.367 24.9609 328.031 25.2188 326.625 25.2188C325.125 25.2188 323.719 24.9609 322.406 24.4453C321.141 23.8828 320.039 23.1328 319.102 22.1953C318.164 21.2109 317.414 20.1094 316.852 18.8906C316.289 17.625 316.008 16.2891 316.008 14.8828C316.008 13.4297 316.289 12.0938 316.852 10.875C317.414 9.60938 318.164 8.50781 319.102 7.57031C320.039 6.63281 321.141 5.90625 322.406 5.39062C323.719 4.82812 325.125 4.54688 326.625 4.54688C328.031 4.54688 329.367 4.82812 330.633 5.39062C331.898 5.90625 333.023 6.63281 334.008 7.57031C334.992 8.50781 335.766 9.60938 336.328 10.875C336.891 12.0938 337.172 13.4297 337.172 14.8828Z"
            fill="#FFFAFA"
          />
          <path
            d="M412.617 58.3359C412.617 60.9609 412.5 63.7266 412.266 66.6328C412.031 69.5391 411.68 72.4453 411.211 75.3516C410.742 78.2578 410.156 81.0938 409.453 83.8594C408.797 86.625 408.023 89.1562 407.133 91.4531L420.984 95.9531L384.352 103.125L396.797 93.7734C397.781 90.1641 398.438 86.6953 398.766 83.3672C399.141 80.0391 399.328 76.8984 399.328 73.9453C399.328 72.1641 399.258 70.1484 399.117 67.8984C399.023 65.6016 398.766 63.2812 398.344 60.9375C397.969 58.5938 397.406 56.2969 396.656 54.0469C395.953 51.7969 395.016 49.8047 393.844 48.0703C392.672 46.2891 391.219 44.8828 389.484 43.8516C387.797 42.7734 385.758 42.2344 383.367 42.2344C380.602 42.2344 377.789 43.1484 374.93 44.9766C372.07 46.8047 369.422 49.5 366.984 53.0625V91.9453L378.586 100.242L343.781 102.703L352.992 92.5078L357.914 41.3906L342.938 34.0078L366.984 31.6172V42.2344C368.344 40.3594 369.844 38.6016 371.484 36.9609C373.125 35.3203 374.859 33.9141 376.688 32.7422C378.516 31.5234 380.414 30.5859 382.383 29.9297C384.398 29.2266 386.461 28.875 388.57 28.875C392.648 28.875 396.188 29.625 399.188 31.125C402.188 32.625 404.672 34.7109 406.641 37.3828C408.656 40.0078 410.156 43.125 411.141 46.7344C412.125 50.2969 412.617 54.1641 412.617 58.3359Z"
            fill="#FFFAFA"
          />
          <path
            d="M485.812 58.1953C485.812 60.6797 485.672 63.3516 485.391 66.2109C485.109 69.0703 484.688 71.9766 484.125 74.9297C483.609 77.8828 482.977 80.7891 482.227 83.6484C481.523 86.4609 480.75 89.0625 479.906 91.4531L494.883 102L468.375 100.875L469.992 92.2266C467.18 95.7422 463.922 98.4375 460.219 100.312C456.562 102.141 452.32 103.242 447.492 103.617C443.555 103.898 440.109 103.617 437.156 102.773C434.25 101.977 431.812 100.734 429.844 99.0469C427.922 97.3125 426.492 95.2031 425.555 92.7188C424.617 90.1875 424.148 87.375 424.148 84.2812C424.148 81.4219 424.852 78.6562 426.258 75.9844C427.664 73.2656 429.68 70.875 432.305 68.8125C434.977 66.75 438.234 65.1094 442.078 63.8906C445.922 62.625 450.281 61.9922 455.156 61.9922C457.406 61.9922 459.984 62.2031 462.891 62.625C465.844 63.0469 468.633 63.9375 471.258 65.2969C471.023 62.4375 470.578 59.5312 469.922 56.5781C469.312 53.5781 468.398 50.8594 467.18 48.4219C465.961 45.9844 464.367 44.0156 462.398 42.5156C460.477 40.9688 458.062 40.1953 455.156 40.1953C452.672 40.1953 450.258 40.7109 447.914 41.7422C445.57 42.7734 443.367 44.25 441.305 46.1719C439.289 48.0938 437.461 50.4375 435.82 53.2031C434.18 55.9688 432.797 59.0859 431.672 62.5547L425.766 28.1016L434.695 41.8125C436.898 39.0938 439.125 36.9375 441.375 35.3438C443.625 33.7031 445.852 32.4609 448.055 31.6172C450.305 30.7266 452.461 30.1406 454.523 29.8594C456.633 29.5781 458.648 29.4375 460.57 29.4375C464.18 29.625 467.508 30.375 470.555 31.6875C473.648 32.9531 476.32 34.8047 478.57 37.2422C480.82 39.6328 482.578 42.5859 483.844 46.1016C485.156 49.6172 485.812 53.6484 485.812 58.1953ZM471.258 80.6953C471.352 79.3828 471.422 78.1172 471.469 76.8984C471.516 75.6797 471.539 74.4844 471.539 73.3125V72.4688C469.852 71.8125 468.141 71.3203 466.406 70.9922C464.719 70.6172 463.148 70.3594 461.695 70.2188C460.242 70.0312 459 69.9375 457.969 69.9375C456.984 69.8906 456.328 69.8672 456 69.8672C453.328 69.9609 451.008 70.4531 449.039 71.3438C447.07 72.2344 445.43 73.3594 444.117 74.7188C442.852 76.0312 441.891 77.5078 441.234 79.1484C440.625 80.7891 440.32 82.4062 440.32 84C440.32 87.6094 441.188 90.3516 442.922 92.2266C444.703 94.0547 447.281 94.9688 450.656 94.9688C452.906 94.9688 455.039 94.5703 457.055 93.7734C459.07 92.9766 460.945 91.9219 462.68 90.6094C464.461 89.25 466.055 87.7266 467.461 86.0391C468.914 84.3047 470.18 82.5234 471.258 80.6953Z"
            fill="#FFFAFA"
          />
          <path
            d="M502.758 71.2031C502.758 66.7969 503.203 62.4141 504.094 58.0547C505.031 53.6484 506.039 49.6172 507.117 45.9609L494.953 46.7344L529.266 9.25781C526.547 17.8359 524.344 25.5703 522.656 32.4609L550.008 34.7812L546.422 43.2188L519.914 45.1172C519.258 48.5391 518.742 51.5859 518.367 54.2578C518.039 56.8828 517.758 59.1094 517.523 60.9375C517.289 63.0938 517.125 64.9688 517.031 66.5625C517.031 71.25 517.312 75.4688 517.875 79.2188C518.438 82.9688 519.305 86.1797 520.477 88.8516C521.695 91.4766 523.219 93.5156 525.047 94.9688C526.922 96.375 529.148 97.0781 531.727 97.0781C534.117 97.0781 536.109 96.6094 537.703 95.6719C539.344 94.6875 540.656 93.4453 541.641 91.9453C542.625 90.3984 543.328 88.6875 543.75 86.8125C544.172 84.8906 544.383 82.9922 544.383 81.1172C544.383 79.3828 544.242 77.6953 543.961 76.0547C545.977 77.0859 547.5 78.75 548.531 81.0469C549.609 83.2969 550.148 85.7578 550.148 88.4297C550.148 91.1953 549.68 93.6328 548.742 95.7422C547.852 97.8516 546.609 99.6328 545.016 101.086C543.422 102.492 541.547 103.57 539.391 104.32C537.234 105.07 534.914 105.445 532.43 105.445C530.93 105.445 529.148 105.281 527.086 104.953C525.07 104.625 522.961 104.016 520.758 103.125C518.555 102.281 516.375 101.062 514.219 99.4688C512.062 97.875 510.141 95.8125 508.453 93.2812C506.766 90.75 505.383 87.6797 504.305 84.0703C503.273 80.4141 502.758 76.125 502.758 71.2031Z"
            fill="#FFFAFA"
          />
          <path
            d="M554.648 66.7031C554.648 61.4531 555.469 56.6016 557.109 52.1484C558.797 47.6484 561.117 43.7578 564.07 40.4766C567.07 37.1953 570.609 34.6406 574.688 32.8125C578.812 30.9375 583.312 30 588.188 30C592.922 30 597.258 30.8906 601.195 32.6719C605.133 34.4062 608.555 36.8672 611.461 40.0547C614.367 43.2422 616.688 47.0625 618.422 51.5156C620.156 55.9688 621.188 60.8906 621.516 66.2812C621.844 72.0469 621.234 77.2734 619.688 81.9609C618.188 86.6016 615.961 90.5625 613.008 93.8438C610.055 97.0781 606.516 99.5859 602.391 101.367C598.312 103.148 593.883 104.039 589.102 104.039C584.508 104.039 580.125 103.219 575.953 101.578C571.828 99.8906 568.172 97.4531 564.984 94.2656C561.844 91.0781 559.336 87.1875 557.461 82.5938C555.586 77.9531 554.648 72.6562 554.648 66.7031ZM571.945 67.8984C571.945 72.0234 572.531 75.75 573.703 79.0781C574.875 82.4062 576.445 85.2422 578.414 87.5859C580.383 89.8828 582.656 91.6641 585.234 92.9297C587.812 94.1953 590.531 94.8281 593.391 94.8281C596.25 94.8281 598.922 94.2188 601.406 93C603.891 91.7344 606.047 89.9766 607.875 87.7266C609.703 85.4297 611.133 82.6875 612.164 79.5C613.195 76.3125 613.711 72.7734 613.711 68.8828C613.711 65.0391 613.195 61.4297 612.164 58.0547C611.133 54.6328 609.68 51.6562 607.805 49.125C605.977 46.5938 603.797 44.6016 601.266 43.1484C598.734 41.6953 595.969 40.9688 592.969 40.9688C590.297 40.9688 587.695 41.5781 585.164 42.7969C582.68 44.0156 580.453 45.7969 578.484 48.1406C576.516 50.4375 574.922 53.25 573.703 56.5781C572.531 59.9062 571.945 63.6797 571.945 67.8984Z"
            fill="#FFFAFA"
          />
          <path
            d="M678.047 54.0469C677.625 52.3125 677.016 50.8359 676.219 49.6172C675.469 48.3984 674.602 47.3906 673.617 46.5938C672.68 45.75 671.672 45.1172 670.594 44.6953C669.516 44.2266 668.438 43.875 667.359 43.6406C664.828 43.125 662.133 43.1484 659.273 43.7109C658.289 44.0391 657.234 44.5547 656.109 45.2578C655.125 45.9141 654 46.8047 652.734 47.9297C651.469 49.0078 650.109 50.4609 648.656 52.2891L649.922 93.0703L662.578 99.3984L625.312 102.703L634.945 92.9297L638.883 43.9922L623.906 37.1719L648.094 32.6016L648.375 41.3906C650.016 39.4219 651.703 37.8047 653.438 36.5391C655.172 35.2734 656.742 34.2422 658.148 33.4453C659.789 32.5547 661.383 31.875 662.93 31.4062C665.742 30.75 668.602 30.4922 671.508 30.6328C672.727 30.6797 673.992 30.8203 675.305 31.0547C676.664 31.2891 678.023 31.6641 679.383 32.1797C680.789 32.6484 682.148 33.3047 683.461 34.1484C684.773 34.9453 686.039 35.9531 687.258 37.1719L678.047 54.0469Z"
            fill="#FFFAFA"
          />
          <path
            d="M82.9922 36.8906L71.7422 12.8438L35.8828 19.9453L37.2188 45.6797H47.8359L59.5078 28.7344V71.4844L47.2734 52.6406L37.6406 53.7656L39.5391 88.9219L60.2109 97.7109L6.5625 103.406L21.8203 89.7656L25.5469 22.3359L6.35156 5.39062L82.9922 2.64844V36.8906Z"
            stroke="#FCFAFA"
            stroke-width="4"
            mask="url(#path-1-outside-1)"
          />
          <path
            d="M85.5234 66.7031C85.5234 61.4531 86.3438 56.6016 87.9844 52.1484C89.6719 47.6484 91.9922 43.7578 94.9453 40.4766C97.9453 37.1953 101.484 34.6406 105.562 32.8125C109.688 30.9375 114.188 30 119.062 30C123.797 30 128.133 30.8906 132.07 32.6719C136.008 34.4062 139.43 36.8672 142.336 40.0547C145.242 43.2422 147.562 47.0625 149.297 51.5156C151.031 55.9688 152.062 60.8906 152.391 66.2812C152.719 72.0469 152.109 77.2734 150.562 81.9609C149.062 86.6016 146.836 90.5625 143.883 93.8438C140.93 97.0781 137.391 99.5859 133.266 101.367C129.188 103.148 124.758 104.039 119.977 104.039C115.383 104.039 111 103.219 106.828 101.578C102.703 99.8906 99.0469 97.4531 95.8594 94.2656C92.7188 91.0781 90.2109 87.1875 88.3359 82.5938C86.4609 77.9531 85.5234 72.6562 85.5234 66.7031ZM102.82 67.8984C102.82 72.0234 103.406 75.75 104.578 79.0781C105.75 82.4062 107.32 85.2422 109.289 87.5859C111.258 89.8828 113.531 91.6641 116.109 92.9297C118.688 94.1953 121.406 94.8281 124.266 94.8281C127.125 94.8281 129.797 94.2188 132.281 93C134.766 91.7344 136.922 89.9766 138.75 87.7266C140.578 85.4297 142.008 82.6875 143.039 79.5C144.07 76.3125 144.586 72.7734 144.586 68.8828C144.586 65.0391 144.07 61.4297 143.039 58.0547C142.008 54.6328 140.555 51.6562 138.68 49.125C136.852 46.5938 134.672 44.6016 132.141 43.1484C129.609 41.6953 126.844 40.9688 123.844 40.9688C121.172 40.9688 118.57 41.5781 116.039 42.7969C113.555 44.0156 111.328 45.7969 109.359 48.1406C107.391 50.4375 105.797 53.25 104.578 56.5781C103.406 59.9062 102.82 63.6797 102.82 67.8984Z"
            stroke="#FCFAFA"
            stroke-width="4"
            mask="url(#path-1-outside-1)"
          />
          <path
            d="M160.477 66.7031C160.477 61.4531 161.297 56.6016 162.938 52.1484C164.625 47.6484 166.945 43.7578 169.898 40.4766C172.898 37.1953 176.438 34.6406 180.516 32.8125C184.641 30.9375 189.141 30 194.016 30C198.75 30 203.086 30.8906 207.023 32.6719C210.961 34.4062 214.383 36.8672 217.289 40.0547C220.195 43.2422 222.516 47.0625 224.25 51.5156C225.984 55.9688 227.016 60.8906 227.344 66.2812C227.672 72.0469 227.062 77.2734 225.516 81.9609C224.016 86.6016 221.789 90.5625 218.836 93.8438C215.883 97.0781 212.344 99.5859 208.219 101.367C204.141 103.148 199.711 104.039 194.93 104.039C190.336 104.039 185.953 103.219 181.781 101.578C177.656 99.8906 174 97.4531 170.812 94.2656C167.672 91.0781 165.164 87.1875 163.289 82.5938C161.414 77.9531 160.477 72.6562 160.477 66.7031ZM177.773 67.8984C177.773 72.0234 178.359 75.75 179.531 79.0781C180.703 82.4062 182.273 85.2422 184.242 87.5859C186.211 89.8828 188.484 91.6641 191.062 92.9297C193.641 94.1953 196.359 94.8281 199.219 94.8281C202.078 94.8281 204.75 94.2188 207.234 93C209.719 91.7344 211.875 89.9766 213.703 87.7266C215.531 85.4297 216.961 82.6875 217.992 79.5C219.023 76.3125 219.539 72.7734 219.539 68.8828C219.539 65.0391 219.023 61.4297 217.992 58.0547C216.961 54.6328 215.508 51.6562 213.633 49.125C211.805 46.5938 209.625 44.6016 207.094 43.1484C204.562 41.6953 201.797 40.9688 198.797 40.9688C196.125 40.9688 193.523 41.5781 190.992 42.7969C188.508 44.0156 186.281 45.7969 184.312 48.1406C182.344 50.4375 180.75 53.25 179.531 56.5781C178.359 59.9062 177.773 63.6797 177.773 67.8984Z"
            stroke="#FCFAFA"
            stroke-width="4"
            mask="url(#path-1-outside-1)"
          />
          <path
            d="M294.07 93.2109L309.609 98.9766L284.156 103.898L284.438 90.1875C283.312 92.1094 282.023 93.9609 280.57 95.7422C279.117 97.4766 277.477 99.0234 275.648 100.383C273.867 101.742 271.875 102.82 269.672 103.617C267.469 104.461 265.078 104.883 262.5 104.883C258.844 104.789 255.375 103.969 252.094 102.422C248.859 100.875 246 98.6719 243.516 95.8125C241.078 92.9062 239.133 89.3672 237.68 85.1953C236.273 80.9766 235.57 76.1719 235.57 70.7812C235.57 64.2188 236.344 58.4766 237.891 53.5547C239.438 48.6328 241.547 44.5312 244.219 41.25C246.891 37.9688 250.008 35.5078 253.57 33.8672C257.18 32.2266 261.023 31.4062 265.102 31.4062C269.227 31.4062 273.047 32.2969 276.562 34.0781C280.125 35.8125 283.031 38.1562 285.281 41.1094L285.562 24.5156L268.406 18.0469L303.141 11.8594L294.07 93.2109ZM264.68 95.9531C264.82 95.9531 265.289 95.9062 266.086 95.8125C266.883 95.7188 267.867 95.4844 269.039 95.1094C270.211 94.6875 271.5 94.0781 272.906 93.2812C274.359 92.4844 275.789 91.3828 277.195 89.9766C278.648 88.5234 280.031 86.7188 281.344 84.5625C282.656 82.4062 283.781 79.7812 284.719 76.6875L285.141 53.7656C284.438 52.0781 283.547 50.4609 282.469 48.9141C281.438 47.3672 280.266 46.0078 278.953 44.8359C277.688 43.6172 276.258 42.6562 274.664 41.9531C273.117 41.2031 271.477 40.8281 269.742 40.8281C266.508 40.8281 263.742 41.625 261.445 43.2188C259.195 44.8125 257.32 47.0156 255.82 49.8281C254.367 52.6406 253.289 55.9688 252.586 59.8125C251.93 63.6562 251.602 67.8281 251.602 72.3281C251.602 75.6562 251.883 78.7734 252.445 81.6797C253.008 84.5391 253.828 87.0234 254.906 89.1328C255.984 91.2422 257.344 92.9062 258.984 94.125C260.625 95.3438 262.523 95.9531 264.68 95.9531Z"
            stroke="#FCFAFA"
            stroke-width="4"
            mask="url(#path-1-outside-1)"
          />
          <path
            d="M310.523 102.703L321.562 94.0547L319.172 45.5391L306.164 37.0312L336.398 31.8984L330.984 88.2891L346.102 97.7109L310.523 102.703ZM337.172 14.8828C337.172 16.2891 336.891 17.625 336.328 18.8906C335.766 20.1094 334.992 21.2109 334.008 22.1953C333.023 23.1328 331.898 23.8828 330.633 24.4453C329.367 24.9609 328.031 25.2188 326.625 25.2188C325.125 25.2188 323.719 24.9609 322.406 24.4453C321.141 23.8828 320.039 23.1328 319.102 22.1953C318.164 21.2109 317.414 20.1094 316.852 18.8906C316.289 17.625 316.008 16.2891 316.008 14.8828C316.008 13.4297 316.289 12.0938 316.852 10.875C317.414 9.60938 318.164 8.50781 319.102 7.57031C320.039 6.63281 321.141 5.90625 322.406 5.39062C323.719 4.82812 325.125 4.54688 326.625 4.54688C328.031 4.54688 329.367 4.82812 330.633 5.39062C331.898 5.90625 333.023 6.63281 334.008 7.57031C334.992 8.50781 335.766 9.60938 336.328 10.875C336.891 12.0938 337.172 13.4297 337.172 14.8828Z"
            stroke="#FCFAFA"
            stroke-width="4"
            mask="url(#path-1-outside-1)"
          />
          <path
            d="M412.617 58.3359C412.617 60.9609 412.5 63.7266 412.266 66.6328C412.031 69.5391 411.68 72.4453 411.211 75.3516C410.742 78.2578 410.156 81.0938 409.453 83.8594C408.797 86.625 408.023 89.1562 407.133 91.4531L420.984 95.9531L384.352 103.125L396.797 93.7734C397.781 90.1641 398.438 86.6953 398.766 83.3672C399.141 80.0391 399.328 76.8984 399.328 73.9453C399.328 72.1641 399.258 70.1484 399.117 67.8984C399.023 65.6016 398.766 63.2812 398.344 60.9375C397.969 58.5938 397.406 56.2969 396.656 54.0469C395.953 51.7969 395.016 49.8047 393.844 48.0703C392.672 46.2891 391.219 44.8828 389.484 43.8516C387.797 42.7734 385.758 42.2344 383.367 42.2344C380.602 42.2344 377.789 43.1484 374.93 44.9766C372.07 46.8047 369.422 49.5 366.984 53.0625V91.9453L378.586 100.242L343.781 102.703L352.992 92.5078L357.914 41.3906L342.938 34.0078L366.984 31.6172V42.2344C368.344 40.3594 369.844 38.6016 371.484 36.9609C373.125 35.3203 374.859 33.9141 376.688 32.7422C378.516 31.5234 380.414 30.5859 382.383 29.9297C384.398 29.2266 386.461 28.875 388.57 28.875C392.648 28.875 396.188 29.625 399.188 31.125C402.188 32.625 404.672 34.7109 406.641 37.3828C408.656 40.0078 410.156 43.125 411.141 46.7344C412.125 50.2969 412.617 54.1641 412.617 58.3359Z"
            stroke="#FCFAFA"
            stroke-width="4"
            mask="url(#path-1-outside-1)"
          />
          <path
            d="M485.812 58.1953C485.812 60.6797 485.672 63.3516 485.391 66.2109C485.109 69.0703 484.688 71.9766 484.125 74.9297C483.609 77.8828 482.977 80.7891 482.227 83.6484C481.523 86.4609 480.75 89.0625 479.906 91.4531L494.883 102L468.375 100.875L469.992 92.2266C467.18 95.7422 463.922 98.4375 460.219 100.312C456.562 102.141 452.32 103.242 447.492 103.617C443.555 103.898 440.109 103.617 437.156 102.773C434.25 101.977 431.812 100.734 429.844 99.0469C427.922 97.3125 426.492 95.2031 425.555 92.7188C424.617 90.1875 424.148 87.375 424.148 84.2812C424.148 81.4219 424.852 78.6562 426.258 75.9844C427.664 73.2656 429.68 70.875 432.305 68.8125C434.977 66.75 438.234 65.1094 442.078 63.8906C445.922 62.625 450.281 61.9922 455.156 61.9922C457.406 61.9922 459.984 62.2031 462.891 62.625C465.844 63.0469 468.633 63.9375 471.258 65.2969C471.023 62.4375 470.578 59.5312 469.922 56.5781C469.312 53.5781 468.398 50.8594 467.18 48.4219C465.961 45.9844 464.367 44.0156 462.398 42.5156C460.477 40.9688 458.062 40.1953 455.156 40.1953C452.672 40.1953 450.258 40.7109 447.914 41.7422C445.57 42.7734 443.367 44.25 441.305 46.1719C439.289 48.0938 437.461 50.4375 435.82 53.2031C434.18 55.9688 432.797 59.0859 431.672 62.5547L425.766 28.1016L434.695 41.8125C436.898 39.0938 439.125 36.9375 441.375 35.3438C443.625 33.7031 445.852 32.4609 448.055 31.6172C450.305 30.7266 452.461 30.1406 454.523 29.8594C456.633 29.5781 458.648 29.4375 460.57 29.4375C464.18 29.625 467.508 30.375 470.555 31.6875C473.648 32.9531 476.32 34.8047 478.57 37.2422C480.82 39.6328 482.578 42.5859 483.844 46.1016C485.156 49.6172 485.812 53.6484 485.812 58.1953ZM471.258 80.6953C471.352 79.3828 471.422 78.1172 471.469 76.8984C471.516 75.6797 471.539 74.4844 471.539 73.3125V72.4688C469.852 71.8125 468.141 71.3203 466.406 70.9922C464.719 70.6172 463.148 70.3594 461.695 70.2188C460.242 70.0312 459 69.9375 457.969 69.9375C456.984 69.8906 456.328 69.8672 456 69.8672C453.328 69.9609 451.008 70.4531 449.039 71.3438C447.07 72.2344 445.43 73.3594 444.117 74.7188C442.852 76.0312 441.891 77.5078 441.234 79.1484C440.625 80.7891 440.32 82.4062 440.32 84C440.32 87.6094 441.188 90.3516 442.922 92.2266C444.703 94.0547 447.281 94.9688 450.656 94.9688C452.906 94.9688 455.039 94.5703 457.055 93.7734C459.07 92.9766 460.945 91.9219 462.68 90.6094C464.461 89.25 466.055 87.7266 467.461 86.0391C468.914 84.3047 470.18 82.5234 471.258 80.6953Z"
            stroke="#FCFAFA"
            stroke-width="4"
            mask="url(#path-1-outside-1)"
          />
          <path
            d="M502.758 71.2031C502.758 66.7969 503.203 62.4141 504.094 58.0547C505.031 53.6484 506.039 49.6172 507.117 45.9609L494.953 46.7344L529.266 9.25781C526.547 17.8359 524.344 25.5703 522.656 32.4609L550.008 34.7812L546.422 43.2188L519.914 45.1172C519.258 48.5391 518.742 51.5859 518.367 54.2578C518.039 56.8828 517.758 59.1094 517.523 60.9375C517.289 63.0938 517.125 64.9688 517.031 66.5625C517.031 71.25 517.312 75.4688 517.875 79.2188C518.438 82.9688 519.305 86.1797 520.477 88.8516C521.695 91.4766 523.219 93.5156 525.047 94.9688C526.922 96.375 529.148 97.0781 531.727 97.0781C534.117 97.0781 536.109 96.6094 537.703 95.6719C539.344 94.6875 540.656 93.4453 541.641 91.9453C542.625 90.3984 543.328 88.6875 543.75 86.8125C544.172 84.8906 544.383 82.9922 544.383 81.1172C544.383 79.3828 544.242 77.6953 543.961 76.0547C545.977 77.0859 547.5 78.75 548.531 81.0469C549.609 83.2969 550.148 85.7578 550.148 88.4297C550.148 91.1953 549.68 93.6328 548.742 95.7422C547.852 97.8516 546.609 99.6328 545.016 101.086C543.422 102.492 541.547 103.57 539.391 104.32C537.234 105.07 534.914 105.445 532.43 105.445C530.93 105.445 529.148 105.281 527.086 104.953C525.07 104.625 522.961 104.016 520.758 103.125C518.555 102.281 516.375 101.062 514.219 99.4688C512.062 97.875 510.141 95.8125 508.453 93.2812C506.766 90.75 505.383 87.6797 504.305 84.0703C503.273 80.4141 502.758 76.125 502.758 71.2031Z"
            stroke="#FCFAFA"
            stroke-width="4"
            mask="url(#path-1-outside-1)"
          />
          <path
            d="M554.648 66.7031C554.648 61.4531 555.469 56.6016 557.109 52.1484C558.797 47.6484 561.117 43.7578 564.07 40.4766C567.07 37.1953 570.609 34.6406 574.688 32.8125C578.812 30.9375 583.312 30 588.188 30C592.922 30 597.258 30.8906 601.195 32.6719C605.133 34.4062 608.555 36.8672 611.461 40.0547C614.367 43.2422 616.688 47.0625 618.422 51.5156C620.156 55.9688 621.188 60.8906 621.516 66.2812C621.844 72.0469 621.234 77.2734 619.688 81.9609C618.188 86.6016 615.961 90.5625 613.008 93.8438C610.055 97.0781 606.516 99.5859 602.391 101.367C598.312 103.148 593.883 104.039 589.102 104.039C584.508 104.039 580.125 103.219 575.953 101.578C571.828 99.8906 568.172 97.4531 564.984 94.2656C561.844 91.0781 559.336 87.1875 557.461 82.5938C555.586 77.9531 554.648 72.6562 554.648 66.7031ZM571.945 67.8984C571.945 72.0234 572.531 75.75 573.703 79.0781C574.875 82.4062 576.445 85.2422 578.414 87.5859C580.383 89.8828 582.656 91.6641 585.234 92.9297C587.812 94.1953 590.531 94.8281 593.391 94.8281C596.25 94.8281 598.922 94.2188 601.406 93C603.891 91.7344 606.047 89.9766 607.875 87.7266C609.703 85.4297 611.133 82.6875 612.164 79.5C613.195 76.3125 613.711 72.7734 613.711 68.8828C613.711 65.0391 613.195 61.4297 612.164 58.0547C611.133 54.6328 609.68 51.6562 607.805 49.125C605.977 46.5938 603.797 44.6016 601.266 43.1484C598.734 41.6953 595.969 40.9688 592.969 40.9688C590.297 40.9688 587.695 41.5781 585.164 42.7969C582.68 44.0156 580.453 45.7969 578.484 48.1406C576.516 50.4375 574.922 53.25 573.703 56.5781C572.531 59.9062 571.945 63.6797 571.945 67.8984Z"
            stroke="#FCFAFA"
            stroke-width="4"
            mask="url(#path-1-outside-1)"
          />
          <path
            d="M678.047 54.0469C677.625 52.3125 677.016 50.8359 676.219 49.6172C675.469 48.3984 674.602 47.3906 673.617 46.5938C672.68 45.75 671.672 45.1172 670.594 44.6953C669.516 44.2266 668.438 43.875 667.359 43.6406C664.828 43.125 662.133 43.1484 659.273 43.7109C658.289 44.0391 657.234 44.5547 656.109 45.2578C655.125 45.9141 654 46.8047 652.734 47.9297C651.469 49.0078 650.109 50.4609 648.656 52.2891L649.922 93.0703L662.578 99.3984L625.312 102.703L634.945 92.9297L638.883 43.9922L623.906 37.1719L648.094 32.6016L648.375 41.3906C650.016 39.4219 651.703 37.8047 653.438 36.5391C655.172 35.2734 656.742 34.2422 658.148 33.4453C659.789 32.5547 661.383 31.875 662.93 31.4062C665.742 30.75 668.602 30.4922 671.508 30.6328C672.727 30.6797 673.992 30.8203 675.305 31.0547C676.664 31.2891 678.023 31.6641 679.383 32.1797C680.789 32.6484 682.148 33.3047 683.461 34.1484C684.773 34.9453 686.039 35.9531 687.258 37.1719L678.047 54.0469Z"
            stroke="#FCFAFA"
            stroke-width="4"
            mask="url(#path-1-outside-1)"
          />
        </svg>